<?xml version="1.0" encoding="UTF-8" standalone="no"?>
<svg
   xmlns:dc="http://purl.org/dc/elements/1.1/"
   xmlns:cc="http://creativecommons.org/ns#"
   xmlns:rdf="http://www.w3.org/1999/02/22-rdf-syntax-ns#"
   xmlns:svg="http://www.w3.org/2000/svg"
   xmlns="http://www.w3.org/2000/svg"
   xmlns:sodipodi="http://sodipodi.sourceforge.net/DTD/sodipodi-0.dtd"
   xmlns:inkscape="http://www.inkscape.org/namespaces/inkscape"
   width="527.5"
   height="407.5"
   viewBox="0 0 527.5 407.5"
   fill="none"
   version="1.1"
   id="svg65"
   sodipodi:docname="testmap8.svg"
   inkscape:version="1.0.2-2 (e86c870879, 2021-01-15)">
  <metadata
     id="metadata69">
    <rdf:RDF>
      <cc:Work
         rdf:about="">
        <dc:format>image/svg+xml</dc:format>
        <dc:type
           rdf:resource="http://purl.org/dc/dcmitype/StillImage" />
        <dc:title></dc:title>
      </cc:Work>
    </rdf:RDF>
  </metadata>
  <sodipodi:namedview
     pagecolor="#ffffff"
     bordercolor="#666666"
     borderopacity="1"
     objecttolerance="10"
     gridtolerance="10"
     guidetolerance="10"
     inkscape:pageopacity="0"
     inkscape:pageshadow="2"
     inkscape:window-width="1920"
     inkscape:window-height="1027"
     id="namedview67"
     showgrid="false"
     fit-margin-top="10"
     fit-margin-left="10"
     fit-margin-right="10"
     fit-margin-bottom="10"
     inkscape:zoom="1.5669275"
     inkscape:cx="272.87667"
     inkscape:cy="236.42207"
     inkscape:window-x="-8"
     inkscape:window-y="-8"
     inkscape:window-maximized="1"
     inkscape:current-layer="svg65" />
  <g
     id="mag_afrodita"
     data-category="mag">
    <path
       d="m 467.73,83 46.942,-69.301 c 0.553,-0.816 1.828,-0.425 1.828,0.56 V 116 Z"
       fill="#fcf2eb"
       stroke="#d4d1ce"
       stroke-width="2"
       id="path22" />
    <path
       d="m 479.029,84.75 h -0.554 l 1.602,-4.364 h 0.545 l 1.603,4.364 h -0.554 l -1.304,-3.673 h -0.034 z m 0.204,-1.705 h 2.233 v 0.469 h -2.233 z m 4.933,2.821 v -5.48 h 0.503 v 5.48 z m 0,-1.048 c -0.222,0 -0.424,-0.04 -0.605,-0.119 -0.182,-0.081 -0.338,-0.195 -0.469,-0.343 -0.131,-0.149 -0.232,-0.328 -0.303,-0.535 -0.071,-0.207 -0.106,-0.437 -0.106,-0.69 0,-0.256 0.035,-0.488 0.106,-0.695 0.071,-0.209 0.172,-0.388 0.303,-0.537 0.131,-0.149 0.287,-0.263 0.469,-0.343 0.181,-0.081 0.383,-0.121 0.605,-0.121 h 0.153 v 3.383 z m 0,-0.452 h 0.085 v -2.48 h -0.085 c -0.168,0 -0.313,0.034 -0.437,0.103 -0.124,0.066 -0.226,0.158 -0.307,0.274 -0.079,0.116 -0.139,0.248 -0.179,0.397 -0.038,0.149 -0.057,0.306 -0.057,0.471 0,0.218 0.034,0.422 0.104,0.609 0.07,0.188 0.177,0.339 0.322,0.454 0.145,0.115 0.329,0.172 0.554,0.172 z m 0.503,0.452 h -0.154 v -3.383 h 0.154 c 0.221,0 0.423,0.04 0.605,0.121 0.182,0.08 0.338,0.194 0.468,0.343 0.131,0.149 0.232,0.328 0.303,0.537 0.071,0.207 0.107,0.439 0.107,0.695 0,0.253 -0.036,0.483 -0.107,0.69 -0.071,0.207 -0.172,0.386 -0.303,0.535 -0.13,0.148 -0.286,0.262 -0.468,0.343 -0.182,0.079 -0.384,0.119 -0.605,0.119 z m 0,-0.452 c 0.169,0 0.314,-0.032 0.436,-0.098 0.124,-0.066 0.226,-0.157 0.305,-0.272 0.081,-0.117 0.141,-0.249 0.179,-0.397 0.04,-0.149 0.06,-0.305 0.06,-0.468 0,-0.219 -0.035,-0.423 -0.105,-0.612 -0.069,-0.189 -0.177,-0.341 -0.321,-0.458 -0.145,-0.116 -0.33,-0.175 -0.554,-0.175 h -0.086 v 2.48 z m 2.251,1.611 v -4.5 h 0.486 v 0.52 h 0.06 c 0.037,-0.057 0.088,-0.129 0.153,-0.217 0.067,-0.09 0.162,-0.169 0.286,-0.239 0.125,-0.071 0.294,-0.106 0.507,-0.106 0.275,0 0.518,0.069 0.728,0.206 0.211,0.138 0.375,0.333 0.493,0.586 0.117,0.253 0.176,0.551 0.176,0.895 0,0.347 -0.059,0.647 -0.176,0.901 -0.118,0.253 -0.282,0.449 -0.491,0.589 -0.208,0.137 -0.449,0.206 -0.722,0.206 -0.21,0 -0.378,-0.035 -0.505,-0.104 -0.126,-0.071 -0.224,-0.152 -0.292,-0.241 -0.068,-0.091 -0.12,-0.166 -0.157,-0.226 h -0.043 v 1.73 z m 0.495,-2.863 c 0,0.247 0.036,0.465 0.108,0.654 0.073,0.187 0.178,0.334 0.318,0.441 0.139,0.105 0.309,0.157 0.511,0.157 0.21,0 0.386,-0.055 0.526,-0.166 0.142,-0.112 0.249,-0.263 0.32,-0.451 0.072,-0.191 0.109,-0.402 0.109,-0.635 0,-0.23 -0.036,-0.438 -0.107,-0.623 -0.07,-0.186 -0.175,-0.333 -0.317,-0.441 -0.141,-0.109 -0.318,-0.164 -0.531,-0.164 -0.205,0 -0.376,0.052 -0.516,0.156 -0.139,0.102 -0.244,0.246 -0.315,0.43 -0.071,0.184 -0.106,0.397 -0.106,0.642 z m 4.491,1.704 c -0.295,0 -0.555,-0.07 -0.778,-0.211 -0.221,-0.14 -0.395,-0.337 -0.52,-0.59 -0.123,-0.253 -0.185,-0.548 -0.185,-0.886 0,-0.341 0.062,-0.639 0.185,-0.893 0.125,-0.254 0.299,-0.452 0.52,-0.592 0.223,-0.141 0.483,-0.211 0.778,-0.211 0.295,0 0.554,0.07 0.776,0.211 0.223,0.14 0.396,0.338 0.519,0.592 0.125,0.254 0.188,0.552 0.188,0.893 0,0.338 -0.063,0.633 -0.188,0.886 -0.123,0.253 -0.296,0.45 -0.519,0.59 -0.222,0.141 -0.481,0.211 -0.776,0.211 z m 0,-0.452 c 0.224,0 0.409,-0.057 0.554,-0.172 0.145,-0.115 0.252,-0.266 0.322,-0.454 0.069,-0.187 0.104,-0.391 0.104,-0.609 0,-0.219 -0.035,-0.423 -0.104,-0.612 -0.07,-0.189 -0.177,-0.341 -0.322,-0.458 -0.145,-0.116 -0.33,-0.175 -0.554,-0.175 -0.224,0 -0.409,0.059 -0.554,0.175 -0.145,0.117 -0.252,0.269 -0.322,0.458 -0.069,0.189 -0.104,0.393 -0.104,0.612 0,0.218 0.035,0.422 0.104,0.609 0.07,0.188 0.177,0.339 0.322,0.454 0.145,0.115 0.33,0.172 0.554,0.172 z m 1.901,1.322 v -1.407 h 0.273 c 0.067,-0.069 0.124,-0.145 0.172,-0.226 0.049,-0.081 0.091,-0.176 0.126,-0.287 0.037,-0.112 0.068,-0.249 0.094,-0.409 0.025,-0.162 0.048,-0.358 0.068,-0.586 l 0.111,-1.296 h 2.079 v 2.804 h 0.503 v 1.407 H 496.73 V 84.75 h -2.42 v 0.938 z m 0.844,-1.407 h 1.577 v -2.335 h -1.108 l -0.086,0.827 c -0.035,0.342 -0.079,0.641 -0.132,0.897 -0.052,0.255 -0.136,0.459 -0.251,0.611 z m 3.752,-0.272 1.577,-2.532 h 0.58 v 3.273 h -0.503 v -2.531 l -1.568,2.531 h -0.588 v -3.273 h 0.502 z m 2.632,-2.063 v -0.469 h 2.66 v 0.469 h -1.074 v 2.804 h -0.503 v -2.804 z m 4.186,2.881 c -0.207,0 -0.395,-0.039 -0.564,-0.117 -0.17,-0.08 -0.304,-0.194 -0.403,-0.344 -0.1,-0.15 -0.149,-0.332 -0.149,-0.545 0,-0.187 0.037,-0.339 0.11,-0.456 0.074,-0.118 0.173,-0.21 0.297,-0.277 0.123,-0.067 0.26,-0.116 0.409,-0.149 0.15,-0.034 0.302,-0.061 0.454,-0.081 0.198,-0.026 0.36,-0.045 0.483,-0.058 0.125,-0.014 0.216,-0.037 0.273,-0.07 0.058,-0.033 0.087,-0.089 0.087,-0.17 v -0.017 c 0,-0.211 -0.057,-0.374 -0.172,-0.49 -0.114,-0.117 -0.287,-0.175 -0.518,-0.175 -0.24,0 -0.428,0.052 -0.565,0.158 -0.136,0.105 -0.232,0.217 -0.287,0.336 l -0.478,-0.17 c 0.086,-0.199 0.199,-0.354 0.341,-0.465 0.144,-0.112 0.3,-0.19 0.469,-0.234 0.171,-0.046 0.338,-0.068 0.503,-0.068 0.105,0 0.226,0.012 0.362,0.038 0.138,0.024 0.271,0.075 0.399,0.151 0.129,0.077 0.236,0.193 0.321,0.348 0.086,0.154 0.128,0.362 0.128,0.622 v 2.156 h -0.503 v -0.443 h -0.025 c -0.034,0.071 -0.091,0.147 -0.171,0.228 -0.079,0.081 -0.185,0.15 -0.317,0.206 -0.132,0.057 -0.294,0.086 -0.484,0.086 z m 0.077,-0.452 c 0.199,0 0.366,-0.039 0.503,-0.117 0.137,-0.078 0.241,-0.179 0.311,-0.303 0.071,-0.123 0.106,-0.253 0.106,-0.39 v -0.46 c -0.021,0.026 -0.068,0.049 -0.14,0.07 -0.071,0.02 -0.154,0.038 -0.247,0.054 -0.093,0.014 -0.183,0.027 -0.271,0.038 -0.087,0.01 -0.157,0.019 -0.211,0.026 -0.131,0.017 -0.253,0.044 -0.366,0.083 -0.113,0.037 -0.204,0.093 -0.273,0.168 -0.068,0.074 -0.102,0.175 -0.102,0.303 0,0.174 0.064,0.306 0.193,0.396 0.131,0.088 0.297,0.132 0.497,0.132 z"
       fill="#120c07"
       id="path32"
       class="text-label" />
  </g>
  <g
     id="mag_secondhand"
     data-category="mag">
    <path
       d="M 516.5,395.5 V 116 L 467.73,83 379.341,215.422 c -0.548,0.822 -0.841,1.788 -0.841,2.776 v 71.552 h 55 c 1.105,0 2,0.895 2,2 V 381 h 22 c 0.552,0 1,-0.448 1,-1 v -9.5 c 0,-0.552 0.448,-1 1,-1 H 496 c 0.552,0 1,0.448 1,1 v 25 c 0,0.552 0.448,1 1,1 h 17.5 c 0.552,0 1,-0.448 1,-1 z"
       fill="#fcf2eb"
       stroke="#d4d1ce"
       stroke-width="2"
       id="path16" />
    <path
       d="m 396.754,238.841 v 10.909 h -1.322 v -9.737 h -5.497 v 9.737 h -1.321 v -10.909 z m 1.769,10.909 v -1.172 h 0.299 c 0.245,0 0.449,-0.048 0.612,-0.144 0.164,-0.099 0.295,-0.271 0.394,-0.516 0.103,-0.249 0.181,-0.593 0.235,-1.034 0.057,-0.444 0.097,-1.008 0.122,-1.694 l 0.149,-3.622 h 5.455 v 8.182 h -1.257 v -7.01 h -3.004 l -0.128,2.919 c -0.029,0.671 -0.089,1.263 -0.181,1.774 -0.089,0.508 -0.226,0.934 -0.411,1.278 -0.181,0.345 -0.422,0.604 -0.724,0.778 -0.302,0.174 -0.68,0.261 -1.135,0.261 z m 11.98,0.192 c -0.518,0 -0.989,-0.098 -1.412,-0.293 -0.422,-0.199 -0.758,-0.485 -1.006,-0.858 -0.249,-0.376 -0.373,-0.831 -0.373,-1.363 0,-0.469 0.092,-0.849 0.277,-1.14 0.185,-0.295 0.431,-0.526 0.74,-0.693 0.309,-0.167 0.65,-0.291 1.023,-0.373 0.376,-0.085 0.755,-0.152 1.135,-0.202 0.497,-0.064 0.9,-0.112 1.209,-0.144 0.312,-0.035 0.54,-0.094 0.682,-0.176 0.145,-0.081 0.218,-0.223 0.218,-0.426 v -0.042 c 0,-0.526 -0.144,-0.934 -0.432,-1.226 -0.284,-0.291 -0.715,-0.436 -1.294,-0.436 -0.6,0 -1.071,0.131 -1.411,0.394 -0.341,0.263 -0.581,0.543 -0.72,0.841 l -1.193,-0.426 c 0.213,-0.497 0.497,-0.884 0.853,-1.161 0.358,-0.281 0.749,-0.476 1.171,-0.586 0.427,-0.114 0.846,-0.17 1.257,-0.17 0.263,0 0.565,0.032 0.906,0.096 0.344,0.06 0.677,0.186 0.996,0.378 0.323,0.191 0.591,0.481 0.804,0.868 0.214,0.387 0.32,0.906 0.32,1.555 v 5.391 h -1.257 v -1.108 h -0.064 c -0.085,0.178 -0.227,0.368 -0.426,0.57 -0.199,0.202 -0.464,0.375 -0.794,0.517 -0.33,0.142 -0.733,0.213 -1.209,0.213 z m 0.192,-1.13 c 0.497,0 0.916,-0.097 1.257,-0.292 0.344,-0.196 0.604,-0.448 0.778,-0.757 0.177,-0.309 0.266,-0.634 0.266,-0.975 v -1.15 c -0.053,0.064 -0.17,0.122 -0.352,0.176 -0.177,0.049 -0.383,0.094 -0.617,0.133 -0.231,0.035 -0.457,0.067 -0.677,0.096 -0.217,0.024 -0.392,0.046 -0.527,0.064 -0.327,0.042 -0.632,0.111 -0.917,0.207 -0.28,0.093 -0.507,0.233 -0.681,0.421 -0.171,0.185 -0.256,0.437 -0.256,0.756 0,0.437 0.162,0.768 0.485,0.991 0.326,0.22 0.74,0.33 1.241,0.33 z m 11.328,-3.728 v 1.172 h -4.517 v -1.172 z m -4.218,-3.516 v 8.182 h -1.257 v -8.182 z m 5.177,0 v 8.182 h -1.257 v -8.182 z m 5.726,8.352 c -0.788,0 -1.468,-0.174 -2.04,-0.522 -0.568,-0.351 -1.006,-0.841 -1.315,-1.47 -0.306,-0.632 -0.459,-1.367 -0.459,-2.205 0,-0.838 0.153,-1.577 0.459,-2.216 0.309,-0.643 0.738,-1.143 1.289,-1.502 0.554,-0.362 1.2,-0.543 1.939,-0.543 0.426,0 0.847,0.071 1.262,0.213 0.415,0.142 0.794,0.373 1.135,0.692 0.34,0.316 0.612,0.735 0.815,1.257 0.202,0.522 0.303,1.165 0.303,1.929 v 0.532 h -6.307 v -1.086 h 5.029 c 0,-0.462 -0.093,-0.874 -0.277,-1.236 -0.181,-0.362 -0.441,-0.648 -0.778,-0.858 -0.334,-0.209 -0.728,-0.314 -1.182,-0.314 -0.501,0 -0.934,0.124 -1.3,0.373 -0.362,0.245 -0.641,0.564 -0.836,0.959 -0.196,0.394 -0.293,0.816 -0.293,1.267 v 0.725 c 0,0.618 0.106,1.141 0.319,1.571 0.217,0.426 0.517,0.751 0.9,0.975 0.384,0.22 0.83,0.33 1.337,0.33 0.331,0 0.629,-0.046 0.895,-0.138 0.27,-0.096 0.503,-0.238 0.698,-0.426 0.195,-0.192 0.346,-0.43 0.453,-0.714 l 1.214,0.341 c -0.127,0.412 -0.342,0.774 -0.644,1.086 -0.302,0.309 -0.675,0.551 -1.119,0.725 -0.444,0.17 -0.943,0.255 -1.497,0.255 z m 4.539,-7.18 v -1.172 h 6.647 v 1.172 h -2.684 v 7.01 h -1.257 v -7.01 z m 10.464,7.202 c -0.518,0 -0.989,-0.098 -1.412,-0.293 -0.422,-0.199 -0.758,-0.485 -1.006,-0.858 -0.249,-0.376 -0.373,-0.831 -0.373,-1.363 0,-0.469 0.092,-0.849 0.277,-1.14 0.185,-0.295 0.431,-0.526 0.74,-0.693 0.309,-0.167 0.65,-0.291 1.023,-0.373 0.376,-0.085 0.755,-0.152 1.135,-0.202 0.497,-0.064 0.9,-0.112 1.209,-0.144 0.312,-0.035 0.54,-0.094 0.682,-0.176 0.145,-0.081 0.218,-0.223 0.218,-0.426 v -0.042 c 0,-0.526 -0.144,-0.934 -0.431,-1.226 -0.285,-0.291 -0.716,-0.436 -1.295,-0.436 -0.6,0 -1.071,0.131 -1.411,0.394 -0.341,0.263 -0.581,0.543 -0.72,0.841 l -1.193,-0.426 c 0.213,-0.497 0.497,-0.884 0.853,-1.161 0.358,-0.281 0.749,-0.476 1.171,-0.586 0.427,-0.114 0.846,-0.17 1.258,-0.17 0.262,0 0.564,0.032 0.905,0.096 0.345,0.06 0.677,0.186 0.996,0.378 0.323,0.191 0.591,0.481 0.804,0.868 0.214,0.387 0.32,0.906 0.32,1.555 v 5.391 h -1.257 v -1.108 h -0.064 c -0.085,0.178 -0.227,0.368 -0.426,0.57 -0.199,0.202 -0.464,0.375 -0.794,0.517 -0.33,0.142 -0.733,0.213 -1.209,0.213 z m 0.192,-1.13 c 0.497,0 0.916,-0.097 1.257,-0.292 0.344,-0.196 0.604,-0.448 0.778,-0.757 0.177,-0.309 0.266,-0.634 0.266,-0.975 v -1.15 c -0.053,0.064 -0.17,0.122 -0.352,0.176 -0.177,0.049 -0.383,0.094 -0.617,0.133 -0.231,0.035 -0.457,0.067 -0.677,0.096 -0.217,0.024 -0.392,0.046 -0.527,0.064 -0.327,0.042 -0.632,0.111 -0.917,0.207 -0.28,0.093 -0.507,0.233 -0.681,0.421 -0.171,0.185 -0.256,0.437 -0.256,0.756 0,0.437 0.162,0.768 0.485,0.991 0.326,0.22 0.74,0.33 1.241,0.33 z m 19.02,-6.562 h -1.321 c -0.078,-0.38 -0.215,-0.714 -0.41,-1.001 -0.192,-0.288 -0.426,-0.53 -0.703,-0.725 -0.274,-0.199 -0.577,-0.348 -0.911,-0.447 -0.334,-0.1 -0.682,-0.149 -1.044,-0.149 -0.661,0 -1.259,0.166 -1.795,0.5 -0.533,0.334 -0.957,0.826 -1.273,1.476 -0.313,0.65 -0.469,1.447 -0.469,2.391 0,0.945 0.156,1.742 0.469,2.392 0.316,0.65 0.74,1.142 1.273,1.476 0.536,0.333 1.134,0.5 1.795,0.5 0.362,0 0.71,-0.049 1.044,-0.149 0.334,-0.099 0.637,-0.247 0.911,-0.442 0.277,-0.199 0.511,-0.442 0.703,-0.73 0.195,-0.291 0.332,-0.625 0.41,-1.001 h 1.321 c -0.099,0.557 -0.28,1.056 -0.543,1.497 -0.263,0.44 -0.59,0.815 -0.98,1.124 -0.391,0.305 -0.829,0.538 -1.316,0.697 -0.483,0.16 -1,0.24 -1.55,0.24 -0.93,0 -1.758,-0.227 -2.482,-0.682 -0.725,-0.454 -1.295,-1.101 -1.71,-1.939 -0.416,-0.838 -0.623,-1.832 -0.623,-2.983 0,-1.15 0.207,-2.144 0.623,-2.983 0.415,-0.838 0.985,-1.484 1.71,-1.938 0.724,-0.455 1.552,-0.682 2.482,-0.682 0.55,0 1.067,0.08 1.55,0.239 0.487,0.16 0.925,0.395 1.316,0.704 0.39,0.305 0.717,0.678 0.98,1.118 0.263,0.437 0.444,0.936 0.543,1.497 z m 5.395,7.67 c -0.789,0 -1.469,-0.174 -2.04,-0.522 -0.569,-0.351 -1.007,-0.841 -1.316,-1.47 -0.305,-0.632 -0.458,-1.367 -0.458,-2.205 0,-0.838 0.153,-1.577 0.458,-2.216 0.309,-0.643 0.739,-1.143 1.289,-1.502 0.554,-0.362 1.2,-0.543 1.939,-0.543 0.426,0 0.847,0.071 1.262,0.213 0.416,0.142 0.794,0.373 1.135,0.692 0.341,0.316 0.613,0.735 0.815,1.257 0.202,0.522 0.304,1.165 0.304,1.929 v 0.532 h -6.307 v -1.086 h 5.028 c 0,-0.462 -0.092,-0.874 -0.277,-1.236 -0.181,-0.362 -0.44,-0.648 -0.778,-0.858 -0.333,-0.209 -0.728,-0.314 -1.182,-0.314 -0.501,0 -0.934,0.124 -1.3,0.373 -0.362,0.245 -0.641,0.564 -0.836,0.959 -0.195,0.394 -0.293,0.816 -0.293,1.267 v 0.725 c 0,0.618 0.106,1.141 0.32,1.571 0.216,0.426 0.516,0.751 0.9,0.975 0.383,0.22 0.829,0.33 1.337,0.33 0.33,0 0.628,-0.046 0.895,-0.138 0.27,-0.096 0.502,-0.238 0.697,-0.426 0.196,-0.192 0.347,-0.43 0.453,-0.714 l 1.215,0.341 c -0.128,0.412 -0.343,0.774 -0.645,1.086 -0.302,0.309 -0.675,0.551 -1.118,0.725 -0.444,0.17 -0.943,0.255 -1.497,0.255 z m 5.3,-0.17 v -8.182 h 1.257 v 3.558 h 0.831 l 2.94,-3.558 h 1.62 l -3.303,3.942 3.345,4.24 h -1.619 l -2.685,-3.452 h -1.129 v 3.452 z m 11.043,0.17 c -0.738,0 -1.386,-0.175 -1.944,-0.527 -0.554,-0.351 -0.987,-0.843 -1.3,-1.475 -0.308,-0.632 -0.463,-1.371 -0.463,-2.216 0,-0.853 0.155,-1.597 0.463,-2.232 0.313,-0.636 0.746,-1.129 1.3,-1.481 0.558,-0.352 1.206,-0.527 1.944,-0.527 0.739,0 1.385,0.175 1.939,0.527 0.558,0.352 0.991,0.845 1.3,1.481 0.313,0.635 0.469,1.379 0.469,2.232 0,0.845 -0.156,1.584 -0.469,2.216 -0.309,0.632 -0.742,1.124 -1.3,1.475 -0.554,0.352 -1.2,0.527 -1.939,0.527 z m 0,-1.129 c 0.562,0 1.023,-0.144 1.385,-0.431 0.363,-0.288 0.631,-0.666 0.805,-1.135 0.174,-0.469 0.261,-0.976 0.261,-1.523 0,-0.547 -0.087,-1.057 -0.261,-1.529 -0.174,-0.472 -0.442,-0.854 -0.805,-1.145 -0.362,-0.291 -0.823,-0.437 -1.385,-0.437 -0.561,0 -1.022,0.146 -1.384,0.437 -0.363,0.291 -0.631,0.673 -0.805,1.145 -0.174,0.472 -0.261,0.982 -0.261,1.529 0,0.547 0.087,1.054 0.261,1.523 0.174,0.469 0.442,0.847 0.805,1.135 0.362,0.287 0.823,0.431 1.384,0.431 z m 11.103,-3.707 v 1.172 h -4.517 v -1.172 z m -4.219,-3.516 v 8.182 h -1.257 v -8.182 z m 5.177,0 v 8.182 h -1.257 v -8.182 z m 1.423,10.526 v -3.516 h 0.681 c 0.167,-0.174 0.311,-0.362 0.432,-0.565 0.121,-0.202 0.225,-0.442 0.314,-0.719 0.093,-0.28 0.171,-0.621 0.235,-1.022 0.064,-0.405 0.12,-0.893 0.17,-1.465 l 0.277,-3.239 h 5.199 v 7.01 h 1.257 v 3.516 h -1.257 v -2.344 h -6.051 v 2.344 z m 2.109,-3.516 h 3.942 v -5.838 h -2.77 l -0.213,2.067 c -0.089,0.856 -0.199,1.603 -0.33,2.242 -0.132,0.64 -0.341,1.149 -0.629,1.529 z m -73.185,8.263 2.813,4.538 h 0.085 l 2.812,-4.538 h 1.556 l -3.431,5.454 3.431,5.455 h -1.556 l -2.812,-4.453 h -0.085 l -2.813,4.453 h -1.555 l 3.515,-5.455 -3.515,-5.454 z m 11.52,3.793 c -0.284,0.003 -0.57,0.076 -0.857,0.218 -0.284,0.142 -0.522,0.33 -0.714,0.565 -0.188,0.23 -0.282,0.488 -0.282,0.772 H 435.5 c 0,-0.355 0.085,-0.696 0.256,-1.023 0.17,-0.327 0.399,-0.618 0.687,-0.873 0.291,-0.256 0.621,-0.458 0.991,-0.608 0.372,-0.149 0.758,-0.223 1.155,-0.223 0.746,0 1.378,0.188 1.897,0.564 0.522,0.377 0.918,0.874 1.188,1.492 0.273,0.618 0.41,1.289 0.41,2.013 v 0.299 c 0,0.72 -0.137,1.392 -0.41,2.013 -0.27,0.618 -0.666,1.115 -1.188,1.492 -0.519,0.376 -1.151,0.564 -1.897,0.564 -0.596,0 -1.127,-0.131 -1.592,-0.394 -0.465,-0.266 -0.831,-0.621 -1.098,-1.065 -0.266,-0.444 -0.399,-0.938 -0.399,-1.481 h 1.236 c 0,0.309 0.087,0.598 0.261,0.868 0.177,0.266 0.406,0.483 0.687,0.65 0.284,0.163 0.586,0.247 0.905,0.25 0.476,-0.003 0.881,-0.152 1.215,-0.447 0.334,-0.295 0.588,-0.664 0.762,-1.108 0.174,-0.444 0.261,-0.891 0.261,-1.342 v -0.299 c 0,-0.461 -0.087,-0.912 -0.261,-1.353 -0.171,-0.444 -0.423,-0.811 -0.757,-1.102 -0.33,-0.292 -0.737,-0.439 -1.22,-0.442 z m 2.749,2.407 v 1.172 h -3.58 v -1.172 z m 8.137,0.043 v 1.172 h -4.517 v -1.172 z m -4.219,-3.516 v 8.182 h -1.257 v -8.182 z m 5.177,0 v 8.182 h -1.257 v -8.182 z m 1.423,10.526 v -3.516 h 0.681 c 0.167,-0.174 0.311,-0.362 0.432,-0.565 0.121,-0.202 0.225,-0.442 0.314,-0.719 0.092,-0.28 0.171,-0.621 0.235,-1.022 0.063,-0.405 0.12,-0.893 0.17,-1.465 l 0.277,-3.239 h 5.199 v 7.01 h 1.257 v 3.516 h -1.257 v -2.344 h -6.051 v 2.344 z m 2.109,-3.516 h 3.942 v -5.838 h -2.77 l -0.213,2.067 c -0.089,0.856 -0.199,1.603 -0.33,2.242 -0.132,0.64 -0.341,1.149 -0.629,1.529 z m 10.532,1.364 c -0.518,0 -0.989,-0.098 -1.411,-0.293 -0.423,-0.199 -0.759,-0.485 -1.007,-0.858 -0.249,-0.376 -0.373,-0.831 -0.373,-1.363 0,-0.469 0.092,-0.849 0.277,-1.14 0.185,-0.295 0.431,-0.526 0.74,-0.693 0.309,-0.167 0.65,-0.291 1.023,-0.373 0.377,-0.085 0.755,-0.152 1.135,-0.202 0.497,-0.064 0.9,-0.112 1.209,-0.144 0.312,-0.035 0.54,-0.094 0.682,-0.176 0.145,-0.081 0.218,-0.223 0.218,-0.426 v -0.042 c 0,-0.526 -0.144,-0.934 -0.431,-1.226 -0.284,-0.291 -0.716,-0.436 -1.295,-0.436 -0.6,0 -1.07,0.131 -1.411,0.394 -0.341,0.263 -0.581,0.543 -0.719,0.841 l -1.194,-0.426 c 0.213,-0.497 0.498,-0.884 0.853,-1.161 0.358,-0.281 0.749,-0.476 1.172,-0.586 0.426,-0.114 0.845,-0.17 1.257,-0.17 0.262,0 0.564,0.032 0.905,0.096 0.345,0.06 0.677,0.186 0.996,0.378 0.323,0.191 0.592,0.481 0.805,0.868 0.213,0.387 0.319,0.906 0.319,1.555 v 5.391 h -1.257 v -1.108 h -0.064 c -0.085,0.178 -0.227,0.368 -0.426,0.57 -0.199,0.202 -0.463,0.375 -0.794,0.517 -0.33,0.142 -0.733,0.213 -1.209,0.213 z m 0.192,-1.13 c 0.497,0 0.916,-0.097 1.257,-0.292 0.345,-0.196 0.604,-0.448 0.778,-0.757 0.177,-0.309 0.266,-0.634 0.266,-0.975 v -1.15 c -0.053,0.064 -0.17,0.122 -0.351,0.176 -0.178,0.049 -0.384,0.094 -0.618,0.133 -0.231,0.035 -0.457,0.067 -0.677,0.096 -0.216,0.024 -0.392,0.046 -0.527,0.064 -0.327,0.042 -0.632,0.111 -0.916,0.207 -0.281,0.093 -0.508,0.233 -0.682,0.421 -0.171,0.185 -0.256,0.437 -0.256,0.756 0,0.437 0.162,0.768 0.485,0.991 0.327,0.22 0.74,0.33 1.241,0.33 z"
       fill="#120c07"
       id="path34"
       class="text-label" />
  </g>
  <g
     id="off_mfc"
     data-category="off">
    <path
       d="M 178,178.5 H 29.5 13 c -1.1046,0 -2,-0.895 -2,-2 V 13 c 0,-1.105 0.8954,-2 2,-2 h 334 v 188 l -39.067,6.923 c -0.288,0.051 -0.58,0.077 -0.873,0.077 H 180 v -25.5 c 0,-1.105 -0.895,-2 -2,-2 z"
       fill="#fcf2eb"
       stroke="#d4d1ce"
       stroke-width="2"
       id="path14"
       style="image-rendering:auto"
       data-mag="inf" />
    <path
       d="m 151.056,85.568 h 2.628 l 6.179,15.093 h 0.213 l 6.179,-15.093 h 2.628 v 18.182 h -2.06 V 89.936 h -0.177 l -5.682,13.814 h -1.989 l -5.682,-13.814 h -0.177 v 13.814 h -2.06 z m 28.491,2.166 h 2.877 c 1.349,0 2.548,0.302 3.595,0.906 1.048,0.604 1.871,1.444 2.468,2.521 0.598,1.077 0.897,2.326 0.897,3.747 0,1.42 -0.299,2.672 -0.897,3.755 -0.597,1.083 -1.42,1.929 -2.468,2.539 -1.047,0.61 -2.246,0.914 -3.595,0.914 h -2.877 c -1.349,0 -2.548,-0.301 -3.595,-0.905 -1.048,-0.604 -1.87,-1.444 -2.468,-2.521 -0.598,-1.078 -0.897,-2.326 -0.897,-3.747 0,-1.42 0.299,-2.672 0.897,-3.755 0.598,-1.083 1.42,-1.93 2.468,-2.539 1.047,-0.61 2.246,-0.915 3.595,-0.915 z m 0,1.954 c -1.029,0 -1.899,0.216 -2.61,0.648 -0.704,0.432 -1.24,1.041 -1.607,1.828 -0.361,0.788 -0.541,1.714 -0.541,2.779 0,1.054 0.18,1.971 0.541,2.752 0.367,0.782 0.903,1.388 1.607,1.82 0.711,0.432 1.581,0.648 2.61,0.648 h 2.877 c 1.03,0 1.897,-0.216 2.601,-0.648 0.71,-0.432 1.246,-1.041 1.607,-1.829 0.367,-0.787 0.55,-1.713 0.55,-2.778 0,-1.054 -0.183,-1.971 -0.55,-2.752 -0.361,-0.782 -0.897,-1.388 -1.607,-1.82 -0.704,-0.432 -1.571,-0.648 -2.601,-0.648 z m 2.557,-4.439 v 19.247 h -2.201 V 85.249 Z m 26.416,16.406 -0.248,6.392 h -2.273 v -4.297 h -1.278 v -2.095 z m -15.447,2.095 V 85.568 h 2.095 v 16.158 h 9.375 V 85.568 h 2.095 v 18.182 z"
       fill="#120c07"
       id="path36"
       class="text-label" />
  </g>
  <g
     id="off_bmw"
     data-category="off">
    <path
       d="M 141.61908,345.79906 68.0007,289 H 29.5 V 178.5 H 178 c 1.105,0 2,0.895 2,2 v 54.108 c 0,0.911 -0.249,1.804 -0.72,2.584 z"
       fill="#fcf2eb"
       stroke="#d4d1ce"
       stroke-width="2"
       id="path12"
       sodipodi:nodetypes="ccccssscc" />
    <text
       xml:space="preserve"
       style="font-style:normal;font-weight:normal;font-size:23.8694px;line-height:1.25;font-family:sans-serif;fill:#000000;fill-opacity:1;stroke:none;stroke-width:0.596734"
       x="111.33099"
       y="197.03094"
       id="text91"
       transform="scale(0.80927293,1.2356771)"><tspan
         sodipodi:role="line"
         id="tspan89"
         x="111.33099"
         y="197.03094"
         style="stroke-width:0.596734">BMW</tspan></text>
  </g>
  <g
     id="rest_bq"
     data-category="rest">
    <path
       d="m 433.5,289.75 h -55 V 379 c 0,1.105 0.895,2 2,2 h 55 v -89.25 c 0,-1.105 -0.895,-2 -2,-2 z"
       fill="#fcf2eb"
       stroke="#d4d1ce"
       stroke-width="2"
       id="path18" />
    <text
       xml:space="preserve"
       style="font-style:normal;font-weight:normal;font-size:24.01px;line-height:1.25;font-family:sans-serif;fill:#000000;fill-opacity:1;stroke:none;stroke-width:0.600251"
       x="548.30511"
       y="249.21854"
       id="text101"
       transform="scale(0.71872719,1.3913485)"><tspan
         sodipodi:role="line"
         id="tspan99"
         x="548.30511"
         y="249.21854"
         style="stroke-width:0.600251">BQ</tspan></text>
  </g>
  <defs
     id="defs63">
    <clipPath
       id="clip0_59_432">
      <rect
         width="20"
         height="20"
         fill="#ffffff"
         transform="translate(62,544)"
         id="rect60"
         x="0"
         y="0" />
    </clipPath>
  </defs>
</svg>
