<?xml version="1.0" encoding="UTF-8" standalone="no"?>
<svg
   xmlns:dc="http://purl.org/dc/elements/1.1/"
   xmlns:cc="http://creativecommons.org/ns#"
   xmlns:rdf="http://www.w3.org/1999/02/22-rdf-syntax-ns#"
   xmlns:svg="http://www.w3.org/2000/svg"
   xmlns="http://www.w3.org/2000/svg"
   xmlns:sodipodi="http://sodipodi.sourceforge.net/DTD/sodipodi-0.dtd"
   xmlns:inkscape="http://www.inkscape.org/namespaces/inkscape"
   width="527.5"
   height="407.5"
   viewBox="0 0 527.5 407.5"
   fill="none"
   version="1.1"
   id="svg65"
   sodipodi:docname="testmap9.svg"
   inkscape:version="1.0.2-2 (e86c870879, 2021-01-15)">
  <metadata
     id="metadata69">
    <rdf:RDF>
      <cc:Work
         rdf:about="">
        <dc:format>image/svg+xml</dc:format>
        <dc:type
           rdf:resource="http://purl.org/dc/dcmitype/StillImage" />
        <dc:title></dc:title>
      </cc:Work>
    </rdf:RDF>
  </metadata>
  <sodipodi:namedview
     pagecolor="#ffffff"
     bordercolor="#666666"
     borderopacity="1"
     objecttolerance="10"
     gridtolerance="10"
     guidetolerance="10"
     inkscape:pageopacity="0"
     inkscape:pageshadow="2"
     inkscape:window-width="1920"
     inkscape:window-height="1027"
     id="namedview67"
     showgrid="false"
     fit-margin-top="10"
     fit-margin-left="10"
     fit-margin-right="10"
     fit-margin-bottom="10"
     inkscape:zoom="1.5259737"
     inkscape:cx="221.04098"
     inkscape:cy="204.28686"
     inkscape:window-x="-8"
     inkscape:window-y="-8"
     inkscape:window-maximized="1"
     inkscape:current-layer="svg65"
     inkscape:document-rotation="0" />
  <g
     id="mag_afrodita"
     data-category="mag">
    <path
       d="m 467.73,83 46.942,-69.301 c 0.553,-0.816 1.828,-0.425 1.828,0.56 V 116 Z"
       fill="#fcf2eb"
       stroke="#d4d1ce"
       stroke-width="2"
       id="path22" />
  </g>
  <g
     id="mag_secondhand"
     data-category="mag">
    <path
       d="M 516.5,395.5 V 116 L 467.73,83 379.341,215.422 c -0.548,0.822 -0.841,1.788 -0.841,2.776 v 71.552 h 55 c 1.105,0 2,0.895 2,2 V 381 h 22 c 0.552,0 1,-0.448 1,-1 v -9.5 c 0,-0.552 0.448,-1 1,-1 H 496 c 0.552,0 1,0.448 1,1 v 25 c 0,0.552 0.448,1 1,1 h 17.5 c 0.552,0 1,-0.448 1,-1 z"
       fill="#fcf2eb"
       stroke="#d4d1ce"
       stroke-width="2"
       id="path16" />
  </g>
  <g
     id="off_mfc"
     data-category="off">
    <path
       d="M 178,178.5 H 29.5 13 c -1.1046,0 -2,-0.895 -2,-2 V 13 c 0,-1.105 0.8954,-2 2,-2 h 334 v 188 l -39.067,6.923 c -0.288,0.051 -0.58,0.077 -0.873,0.077 H 180 v -25.5 c 0,-1.105 -0.895,-2 -2,-2 z"
       fill="#fcf2eb"
       stroke="#d4d1ce"
       stroke-width="2"
       id="path14"
       style="image-rendering:auto"
       data-mag="inf" />
  </g>
  <g
     id="off_bmw"
     data-category="off">
    <path
       d="M 141.61908,345.79906 68.0007,289 H 29.5 V 178.5 H 178 c 1.105,0 2,0.895 2,2 v 54.108 c 0,0.911 -0.249,1.804 -0.72,2.584 z"
       fill="#fcf2eb"
       stroke="#d4d1ce"
       stroke-width="2"
       id="path12"
       sodipodi:nodetypes="ccccssscc" />
  </g>
  <g
     id="rest_bq"
     data-category="rest">
    <path
       d="m 433.5,289.75 h -55 V 379 c 0,1.105 0.895,2 2,2 h 55 v -89.25 c 0,-1.105 -0.895,-2 -2,-2 z"
       fill="#fcf2eb"
       stroke="#d4d1ce"
       stroke-width="2"
       id="path18" />
  </g>
  <defs
     id="defs63">
    <clipPath
       id="clip0_59_432">
      <rect
         width="20"
         height="20"
         fill="#ffffff"
         transform="translate(62,544)"
         id="rect60"
         x="0"
         y="0" />
    </clipPath>
  </defs>
</svg>
